{"title":"Miss America Pageant_2011 720p AC3 6CH HDTV","uid":6106131,"size":9626738340,"categoryP":"video","categoryS":"hd___tv_shows","magnet":"?xt=urn:btih:a829ffe12fe477a38c9b9644c68c01f65a6f9c3b&amp;dn=Miss+America+Pageant_2011+720p+AC3+6CH+HDTV&amp;tr=udp%3A%2F%2Ftracker.openbittorrent.com%3A80&amp;tr=udp%3A%2F%2Fopen.demonii.com%3A1337&amp;tr=udp%3A%2F%2Ftracker.coppersurfer.tk%3A6969&amp;tr=udp%3A%2F%2Fexodus.desync.com%3A6969","seeders":0,"leechers":1,"uploader":"blisbell","files":1,"time":1295174979,"description":"Complete name                    : D:\\Miss America Pageant_2011.ts\nFormat                           : MPEG-TS\nFile size                        : 8.97 GiB\nDuration                         : 1h 24mn\nOverall bit rate                 : 15.1 Mbps\nMaximum Overall bit rate         : 35.5 Mbps\n\nVideo\nID                               : 4113 (0x1011)\nMenu ID                          : 1 (0x1)\nFormat                           : MPEG Video\nFormat_Commercial_IfAny          : HDV 720p\nFormat version                   : Version 2\nFormat profile                   : Main@High\nFormat settings, BVOP            : Yes\nFormat settings, Matrix          : Default\nFormat settings, GOP             : M=3, N=30\nCodec ID                         : 2\nDuration                         : 1h 24mn\nBit rate mode                    : Constant\nBit rate                         : 14.0 Mbps\nNominal bit rate                 : 17.2 Mbps\nWidth                            : 1 280 pixels\nHeight                           : 720 pixels\nDisplay aspect ratio             : 16:9\nFrame rate                       : 59.940 fps\nStandard                         : Component\nColor space                      : YUV\nChroma subsampling               : 4:2:0\nBit depth                        : 8 bits\nScan type                        : Progressive\nCompression mode                 : Lossy\nBits/(Pixel*Frame)               : 0.253\nStream size                      : 8.29 GiB (92%)\n\nAudio\nID                               : 4352 (0x1100)\nMenu ID                          : 1 (0x1)\nFormat                           : AC-3\nFormat/Info                      : Audio Coding 3\nMode extension                   : CM (complete main)\nCodec ID                         : 129\nDuration                         : 1h 24mn\nBit rate mode                    : Constant\nBit rate                         : 384 Kbps\nChannel(s)                       : 6 channels\nChannel positions                : Front: L C R, Side: L R, LFE\nSampling rate                    : 48.0 KHz\nBit depth                        : 16 bits\nCompression mode                 : Lossy\nDelay relative to video          : -171ms\nStream size                      : 233 MiB (3%)\nLanguage                         : English","torrent":{"xt":"urn:btih:a829ffe12fe477a38c9b9644c68c01f65a6f9c3b","amp;dn":"Miss+America+Pageant_2011+720p+AC3+6CH+HDTV","amp;tr":["udp%3A%2F%2Ftracker.openbittorrent.com%3A80","udp%3A%2F%2Fopen.demonii.com%3A1337","udp%3A%2F%2Ftracker.coppersurfer.tk%3A6969","udp%3A%2F%2Fexodus.desync.com%3A6969"],"infoHash":"a829ffe12fe477a38c9b9644c68c01f65a6f9c3b","infoHashBuffer":{"type":"Buffer","data":[168,41,255,225,47,228,119,163,140,155,150,68,198,140,1,246,90,111,156,59]},"announce":[],"urlList":[]}}